# xmcd
#
# Track frame offsets:
#	150
#	11865
#	23123
#	32648
#	43437
#	57392
#	65058
#	76540
#	89783
#	101965
#	112278
#
# Disc length: 1675 seconds
#
# Revision: 0
# Processed by: cddbd v1.5.2PL0 Copyright (c) Steve Scherf et al.
# Submitted via: audiograbber 1.83.01
#
DISCID=9f06890b
DTITLE=White Lines - Goin' To Memphis   HOUSEMASTER  2018
DYEAR=2018
DGENRE=Rockabilly
TTITLE0=Goin' To Memphis
TTITLE1=Rockin' Rhythm
TTITLE2=Got The Jop
TTITLE3=Gonna Cry
TTITLE4=Hey Little Girl
TTITLE5=White Line Boogie
TTITLE6=Boom Chicka Boom
TTITLE7=Thinkin' Of You
TTITLE8=Never Thought
TTITLE9=Rock'n'Roll Satisies Your Soul
TTITLE10=Rockabilly Fever
EXTD=
EXTT0=
EXTT1=
EXTT2=
EXTT3=
EXTT4=
EXTT5=
EXTT6=
EXTT7=
EXTT8=
EXTT9=
EXTT10=
PLAYORDER=
